<?xml version="1.0" standalone="no"?>
<!DOCTYPE svg PUBLIC "-//W3C//DTD SVG 20010904//EN"
 "http://www.w3.org/TR/2001/REC-SVG-20010904/DTD/svg10.dtd">
<svg version="1.0" xmlns="http://www.w3.org/2000/svg"
 width="2084.000000pt" height="1623.000000pt" viewBox="0 0 2084.000000 1623.000000"
 preserveAspectRatio="xMidYMid meet">

<g transform="translate(0.000000,1623.000000) scale(0.100000,-0.100000)"
fill="#000000" stroke="none">
<path d="M15895 16112 c-188 -170 -303 -305 -616 -722 -323 -432 -490 -590
-774 -732 -237 -120 -394 -164 -895 -253 -394 -71 -537 -109 -735 -198 -323
-145 -589 -366 -729 -605 -79 -134 -136 -327 -136 -462 0 -211 105 -442 267
-590 208 -190 486 -301 903 -361 201 -29 537 -31 735 -5 384 52 557 99 1360
373 486 166 792 223 1204 223 485 0 951 -88 1270 -241 149 -71 256 -146 349
-244 173 -182 233 -395 187 -661 -88 -501 -542 -952 -1063 -1054 -43 -9 -110
-11 -205 -7 -317 13 -568 107 -1126 421 -272 153 -407 214 -653 295 -464 152
-945 215 -1388 182 -761 -56 -1185 -74 -1454 -61 -693 33 -1141 211 -1701 674
-68 56 -343 323 -635 616 -520 521 -649 641 -863 801 -405 304 -859 464 -1722
608 -979 163 -1758 171 -2620 26 -479 -80 -852 -185 -1320 -370 -236 -93 -286
-120 -725 -402 -69 -44 -186 -113 -260 -154 -74 -40 -243 -138 -375 -217 -464
-279 -619 -345 -910 -392 -352 -56 -768 -51 -1180 15 -16 3 4 -6 45 -20 84
-29 246 -107 455 -219 239 -129 331 -159 644 -212 249 -41 358 -71 456 -122
81 -43 189 -140 250 -227 133 -187 266 -574 285 -825 13 -174 12 -626 -1 -865
-14 -234 -8 -274 52 -395 70 -140 238 -297 427 -400 46 -25 125 -73 175 -106
347 -231 655 -265 898 -99 76 52 242 220 313 316 34 46 72 121 123 245 179
434 320 652 468 725 77 37 161 34 243 -10 113 -61 164 -149 170 -296 9 -199
-63 -351 -319 -675 -63 -80 -136 -174 -164 -210 -27 -36 -71 -89 -98 -119
-155 -172 -237 -374 -237 -583 0 -53 5 -121 11 -150 35 -173 179 -515 179
-424 0 29 163 339 235 446 123 184 214 292 434 510 398 398 796 676 1213 849
398 166 1643 617 1972 716 375 112 711 160 939 136 228 -25 396 -97 697 -300
102 -68 213 -137 247 -152 145 -67 428 -136 669 -164 149 -17 473 -20 625 -5
611 61 1217 302 1577 629 276 250 383 328 505 366 111 35 224 40 452 21 503
-44 795 -115 1165 -285 129 -59 221 -110 635 -346 192 -109 462 -234 787 -364
l327 -130 56 34 c81 49 207 92 385 132 214 48 339 87 445 140 397 199 726 611
855 1068 86 308 79 638 -20 893 -63 163 -150 300 -275 430 -151 159 -320 274
-542 369 -320 138 -677 204 -1093 204 -266 0 -417 -16 -740 -81 -425 -85 -776
-178 -1230 -324 -604 -194 -789 -232 -1140 -230 -210 1 -234 3 -365 31 -250
54 -407 133 -550 277 -90 91 -145 178 -178 281 -29 92 -31 288 -3 379 92 304
376 548 796 686 199 66 356 92 825 140 352 35 502 59 680 105 314 82 520 195
698 385 230 244 366 577 456 1115 41 247 48 315 30 315 -8 0 -68 -49 -134
-108z"/>
<path d="M13492 9750 c-69 -25 -135 -76 -377 -293 -223 -201 -480 -353 -836
-493 -751 -294 -1650 -310 -2339 -42 -76 30 -140 66 -237 132 -274 188 -388
251 -518 288 -68 19 -103 23 -240 23 -302 0 -542 -58 -1183 -284 -704 -249
-1271 -460 -1511 -563 -307 -131 -674 -383 -976 -669 -434 -412 -648 -737
-765 -1168 l-28 -104 19 -55 c38 -110 53 -220 53 -382 0 -217 -23 -328 -151
-730 -131 -412 -246 -637 -448 -872 -111 -130 -176 -190 -280 -260 -109 -73
-456 -248 -574 -290 -272 -95 -511 -251 -605 -392 -84 -126 -162 -324 -188
-475 -11 -63 -10 -70 9 -97 12 -17 30 -55 41 -87 25 -70 87 -163 188 -282 212
-250 250 -311 280 -450 22 -105 23 -312 0 -415 -21 -97 -99 -254 -221 -445
-121 -188 -142 -229 -166 -323 -24 -95 -24 -169 0 -264 62 -243 245 -445 465
-516 80 -26 328 -21 621 13 297 34 457 31 630 -10 61 -14 160 -38 220 -52 86
-20 137 -26 235 -27 121 -1 127 0 193 31 182 87 307 290 307 501 -1 232 -61
323 -343 513 -162 110 -271 209 -302 274 -10 22 -21 64 -23 93 -4 44 0 63 26
115 25 51 62 93 189 218 87 85 203 191 258 235 198 160 472 356 550 395 229
113 397 55 506 -176 57 -120 77 -239 89 -516 14 -334 36 -423 172 -692 137
-268 260 -453 405 -607 135 -144 264 -224 427 -265 191 -48 303 -44 718 31
245 43 256 44 397 39 80 -4 216 -15 302 -26 329 -40 524 -16 610 78 43 46 59
87 59 152 0 184 -153 329 -430 407 -245 69 -381 189 -512 452 -59 118 -62 128
-66 211 -3 59 1 107 12 151 21 86 105 256 201 410 43 69 105 175 137 235 77
142 138 223 240 321 159 152 356 258 606 325 170 45 258 51 877 59 325 4 680
13 790 20 202 11 354 8 565 -11 252 -24 541 -153 708 -317 93 -92 161 -204
198 -328 25 -80 24 -267 -1 -444 -26 -179 -26 -395 -1 -510 54 -251 186 -523
401 -825 300 -423 497 -601 745 -675 106 -32 339 -38 550 -15 205 23 1099 32
1489 16 151 -6 277 -9 280 -5 11 10 3 133 -14 217 -48 236 -157 397 -361 533
-47 31 -192 110 -322 174 -353 176 -475 263 -603 433 -196 260 -248 545 -141
771 102 214 371 372 577 338 161 -27 247 -101 370 -321 88 -158 161 -254 228
-300 96 -66 235 -94 517 -106 176 -8 238 -19 311 -55 114 -58 166 -149 274
-476 83 -254 127 -343 215 -437 106 -113 220 -157 376 -144 121 11 452 76 554
110 254 84 432 299 511 617 46 185 42 365 -11 576 -91 360 -283 582 -586 677
-45 14 -153 37 -240 51 -662 107 -695 115 -860 196 -123 60 -256 161 -389 294
-206 207 -329 413 -385 649 -49 205 -2 368 149 517 117 114 248 175 481 220
166 33 403 28 553 -10 166 -43 271 -109 322 -201 38 -70 45 -177 20 -314 -9
-53 -15 -98 -13 -100 2 -3 63 4 134 14 462 68 886 14 1313 -168 311 -133 436
-159 621 -127 343 60 885 350 1145 613 129 130 160 195 151 316 -9 109 -33
166 -142 329 -66 99 -141 234 -247 447 -264 529 -287 612 -263 957 10 135 -2
252 -35 341 -24 62 -91 158 -215 306 -111 133 -160 213 -175 285 -14 68 -6
198 17 292 9 36 17 101 17 145 2 139 -52 220 -189 285 -120 58 -245 73 -345
44 -121 -36 -220 -119 -292 -245 l-43 -76 -39 20 c-258 133 -756 341 -2195
917 -660 264 -941 390 -1205 539 -66 38 -194 111 -285 163 -470 266 -836 378
-1365 418 -203 15 -281 12 -343 -10z"/>
</g>
</svg>
