<?xml version="1.0" standalone="no"?>
<!DOCTYPE svg PUBLIC "-//W3C//DTD SVG 20010904//EN"
 "http://www.w3.org/TR/2001/REC-SVG-20010904/DTD/svg10.dtd">
<svg version="1.0" xmlns="http://www.w3.org/2000/svg"
 width="2084.000000pt" height="1844.000000pt" viewBox="0 0 2084.000000 1844.000000"
 preserveAspectRatio="xMidYMid meet">

<g transform="translate(0.000000,1844.000000) scale(0.100000,-0.100000)"
fill="#000000" stroke="none">
<path d="M644 18425 c-97 -17 -136 -31 -225 -77 -192 -98 -330 -269 -391 -485
-32 -111 -31 -286 0 -398 26 -90 77 -198 124 -259 17 -23 947 -958 2067 -2078
l2036 -2038 -500 -500 -500 -500 310 -310 310 -310 362 362 c200 200 363 366
363 369 0 4 -32 56 -72 116 -39 59 -79 126 -89 148 -27 63 -33 135 -15 202 8
32 108 258 223 502 229 489 241 508 351 559 70 33 151 35 402 9 91 -9 286 -22
433 -29 l268 -12 435 435 434 434 -310 310 -310 310 -500 -500 -500 -500
-2042 2042 c-1494 1492 -2060 2052 -2106 2081 -89 57 -195 99 -297 117 -103
18 -164 18 -261 0z"/>
<path d="M19927 18425 c-94 -18 -204 -62 -289 -117 -46 -29 -612 -589 -2106
-2081 l-2042 -2042 -500 500 -500 500 -310 -310 -310 -310 434 -434 435 -434
268 11 c147 7 342 20 433 29 91 9 206 17 255 17 79 1 97 -2 147 -27 109 -53
128 -84 361 -582 211 -449 211 -450 215 -529 2 -45 -1 -97 -8 -120 -6 -23 -47
-96 -91 -163 -43 -67 -79 -126 -79 -130 0 -5 163 -171 363 -371 l362 -362 310
310 310 310 -500 500 -500 500 2036 2038 c1120 1120 2050 2055 2067 2078 47
61 98 169 124 259 31 112 32 287 0 398 -94 331 -373 555 -712 572 -61 3 -123
-1 -173 -10z"/>
<path d="M10350 14444 c-83 -52 -545 -281 -710 -352 -1206 -514 -2495 -761
-3770 -721 -228 7 -377 17 -675 45 l-60 5 -192 -412 -193 -413 59 -90 c390
-607 694 -1397 835 -2172 74 -404 97 -641 103 -1079 6 -390 -1 -551 -42 -920
-53 -477 -59 -586 -59 -1060 -1 -361 3 -485 17 -625 50 -495 122 -846 252
-1235 308 -926 860 -1648 1790 -2345 232 -174 622 -434 1095 -730 853 -534
1197 -785 1522 -1112 l96 -97 124 122 c327 323 643 552 1528 1107 584 366 911
587 1199 812 1045 817 1611 1725 1835 2948 68 370 91 668 90 1160 0 426 -10
595 -59 1035 -61 548 -67 996 -20 1466 67 664 232 1310 487 1911 115 269 304
628 432 819 l54 81 -18 41 c-11 23 -97 209 -193 412 l-174 370 -49 -1 c-27 -1
-133 -9 -236 -18 -393 -35 -962 -37 -1368 -6 -1062 81 -2148 367 -3105 818
-169 80 -401 200 -475 247 -22 14 -45 25 -52 24 -7 0 -38 -16 -68 -35z"/>
<path d="M14978 4671 c-244 -496 -634 -1003 -1088 -1415 l-84 -77 1419 -1420
c781 -782 1458 -1455 1505 -1496 531 -470 1358 -285 1630 364 60 142 75 223
74 398 0 139 -4 172 -26 255 -14 52 -40 126 -57 164 -77 170 -45 137 -1718
1807 l-1578 1577 -77 -157z"/>
<path d="M4189 3233 c-1711 -1713 -1634 -1631 -1709 -1813 -58 -140 -74 -227
-74 -400 0 -135 4 -168 26 -251 50 -186 136 -336 269 -468 209 -210 472 -312
771 -298 245 10 449 93 635 258 49 42 726 716 1506 1496 l1419 1420 -59 53
c-130 119 -404 402 -502 519 -263 315 -450 598 -617 934 -38 75 -71 137 -74
137 -3 0 -719 -714 -1591 -1587z"/>
</g>
</svg>
