<?xml version="1.0" standalone="no"?>
<!DOCTYPE svg PUBLIC "-//W3C//DTD SVG 20010904//EN"
 "http://www.w3.org/TR/2001/REC-SVG-20010904/DTD/svg10.dtd">
<svg version="1.0" xmlns="http://www.w3.org/2000/svg"
 width="2084.000000pt" height="2084.000000pt" viewBox="0 0 2084.000000 2084.000000"
 preserveAspectRatio="xMidYMid meet">

<g transform="translate(0.000000,2084.000000) scale(0.100000,-0.100000)"
fill="#000000" stroke="none">
<path d="M10118 20829 c-239 -35 -519 -264 -770 -629 -139 -202 -356 -615
-496 -945 -253 -597 -467 -1294 -686 -2236 -70 -301 -62 -373 49 -411 46 -16
187 -17 1978 -18 1365 0 1941 3 1972 11 24 6 55 24 72 41 56 58 43 141 -137
858 -306 1225 -709 2234 -1106 2767 -145 196 -359 403 -496 481 -116 66 -265
98 -380 81z"/>
<path d="M11717 20488 c143 -248 237 -425 328 -617 371 -789 630 -1613 890
-2831 62 -286 85 -352 142 -399 78 -64 28 -62 1398 -59 1230 3 1240 3 1275 24
73 43 67 93 -40 299 -437 846 -1014 1649 -1620 2255 -725 725 -1440 1180
-2288 1454 -95 31 -177 56 -182 56 -5 0 38 -82 97 -182z"/>
<path d="M8520 20400 c-71 -13 -124 -35 -253 -106 -1289 -709 -2301 -1807
-3130 -3394 -88 -169 -104 -218 -85 -258 26 -54 4 -53 1132 -50 l1041 3 43 23
c54 29 93 83 115 158 9 33 42 178 73 324 262 1235 619 2290 1057 3119 51 96
94 178 95 183 4 9 -25 9 -88 -2z"/>
<path d="M6415 20037 c-602 -252 -1136 -530 -1649 -859 -421 -271 -868 -611
-1266 -963 -187 -166 -679 -658 -845 -845 -197 -223 -491 -578 -539 -652 -27
-41 -18 -80 24 -100 32 -16 79 -18 510 -19 261 -1 648 -4 860 -8 448 -7 510
-3 597 39 106 52 144 105 292 403 326 655 634 1164 1021 1682 291 390 489 615
902 1029 196 196 326 332 320 338 -5 5 -24 11 -43 13 -26 3 -71 -11 -184 -58z"/>
<path d="M14381 19910 c371 -386 566 -601 769 -845 354 -426 723 -975 1050
-1565 96 -172 349 -669 383 -751 23 -55 81 -114 140 -140 l52 -24 930 -5
c1010 -6 974 -8 1008 49 35 59 15 109 -87 219 -40 42 -110 124 -157 182 -341
418 -851 938 -1279 1306 -335 288 -677 544 -1065 800 -540 355 -1027 616
-1488 798 -138 54 -398 146 -414 146 -3 0 68 -77 158 -170z"/>
<path d="M1702 15889 c-139 -17 -222 -96 -367 -350 -733 -1285 -1174 -2727
-1320 -4319 -18 -197 -19 -285 -4 -331 16 -47 63 -94 108 -107 57 -17 2646
-17 2703 0 52 15 100 62 116 114 14 44 18 85 32 429 44 1025 197 2048 456
3055 97 377 173 633 325 1096 106 323 110 357 45 392 -27 15 -74 17 -406 19
-985 7 -1640 7 -1688 2z"/>
<path d="M4854 15888 c-104 -15 -193 -71 -245 -154 -22 -37 -224 -622 -325
-944 -314 -998 -514 -2121 -609 -3410 -22 -290 -23 -404 -6 -464 18 -62 71
-117 129 -134 58 -18 2767 -20 2831 -2 23 6 59 27 80 46 76 68 95 156 106 474
23 722 53 1357 80 1745 45 623 160 1690 252 2330 42 291 47 398 20 438 -25 38
-56 56 -118 67 -63 11 -2120 19 -2195 8z"/>
<path d="M8116 15844 c-69 -14 -107 -36 -150 -86 -51 -59 -70 -130 -110 -423
-176 -1258 -277 -2422 -316 -3630 -15 -467 -13 -720 5 -783 21 -71 64 -117
128 -138 48 -16 128 -17 1156 -15 l1104 3 156 95 c223 137 732 475 961 638
278 198 730 535 730 545 0 4 -291 372 -648 817 -356 444 -662 833 -681 863
-74 120 -108 264 -98 416 17 251 154 462 368 568 152 75 258 88 559 66 257
-18 1309 -65 1315 -58 3 3 -11 125 -30 272 -85 647 -101 722 -164 785 -77 77
103 71 -2185 73 -1406 2 -2065 0 -2100 -8z"/>
<path d="M13355 15849 c-69 -9 -97 -22 -128 -58 -44 -53 -44 -94 2 -420 23
-163 53 -383 66 -490 14 -107 26 -195 27 -196 2 -1 219 -12 483 -24 264 -12
1006 -46 1649 -77 643 -30 1170 -53 1173 -50 17 17 -306 1006 -371 1135 -50
98 -140 164 -240 177 -60 8 -2602 10 -2661 3z"/>
<path d="M18855 15850 c-38 -5 -446 -9 -905 -8 -761 1 -838 0 -867 -15 -80
-42 -83 -104 -13 -307 72 -207 190 -584 250 -800 28 -102 55 -194 60 -206 8
-20 18 -21 172 -28 408 -17 739 -38 805 -51 221 -44 416 -194 517 -397 61
-124 79 -205 80 -348 0 -105 -16 -205 -192 -1200 -201 -1139 -302 -1718 -302
-1726 0 -2 483 -3 1073 -2 992 3 1076 5 1124 21 67 22 106 56 128 109 58 139
-36 1047 -176 1713 -144 678 -376 1389 -675 2065 -93 210 -371 765 -435 870
-94 151 -217 253 -357 294 -67 19 -198 27 -287 16z"/>
<path d="M10995 14227 c-70 -22 -106 -111 -76 -189 5 -13 331 -426 725 -918
393 -492 730 -922 748 -955 31 -56 33 -67 33 -155 0 -84 -3 -101 -27 -146 -15
-28 -47 -71 -71 -96 -46 -48 -621 -481 -932 -703 -1134 -810 -2321 -1457
-3409 -1860 -565 -209 -1108 -370 -1547 -458 -787 -159 -1598 -225 -2289 -187
-870 48 -1634 212 -2443 523 -37 14 -67 25 -67 23 0 -2 82 -74 182 -159 1152
-980 2279 -1684 3523 -2202 957 -398 1972 -643 2970 -717 214 -15 879 -15
1085 0 1001 77 1784 255 2675 607 556 219 1033 454 1545 760 427 256 1051 688
1325 917 82 69 149 104 228 118 114 22 234 -22 325 -119 29 -31 359 -440 733
-909 375 -469 696 -864 715 -878 58 -44 179 -41 203 5 5 9 89 473 186 1031
326 1876 743 4268 905 5189 88 503 160 931 160 950 -1 72 -59 156 -125 181
-37 14 -169 22 -870 55 -302 14 -1121 52 -1820 85 -1342 63 -3217 150 -3795
175 -332 14 -616 30 -710 40 -25 2 -63 -1 -85 -8z"/>
<path d="M985 10056 c45 -30 259 -148 390 -213 361 -181 774 -340 1184 -458
179 -51 412 -108 418 -102 8 9 -26 604 -37 640 -17 59 -73 114 -133 132 -73
22 -1853 23 -1822 1z"/>
<path d="M3828 10059 c-113 -17 -168 -85 -168 -211 0 -98 41 -650 50 -674 8
-22 68 -30 415 -54 175 -13 693 -12 890 0 590 38 1314 152 1743 275 l52 16 -1
97 c-1 195 -16 386 -33 427 -23 54 -61 91 -112 111 -37 14 -179 16 -1416 17
-756 1 -1395 -1 -1420 -4z"/>
<path d="M7740 10063 c-102 -19 -146 -47 -182 -117 -18 -34 -23 -63 -26 -173
-3 -77 0 -133 5 -133 13 0 368 130 518 190 146 58 526 222 523 225 -6 5 -815
13 -838 8z"/>
<path d="M18335 10048 c-2 -7 -146 -832 -320 -1833 -228 -1311 -323 -1836
-340 -1878 -38 -94 -86 -166 -154 -228 -58 -53 -180 -126 -237 -141 -15 -4
-24 -19 -33 -52 -20 -79 -180 -561 -256 -771 -40 -110 -75 -218 -79 -240 -9
-56 17 -106 64 -122 26 -9 254 -13 930 -14 492 -1 936 -2 985 -2 201 -1 335
87 475 312 89 144 229 398 345 626 600 1182 969 2492 1100 3897 20 211 21 294
6 340 -15 46 -68 93 -118 107 -59 17 -2362 15 -2368 -1z"/>
<path d="M25 9826 c-7 -71 5 -276 36 -576 139 -1382 577 -2726 1305 -4005 136
-239 201 -325 280 -371 100 -59 51 -56 1130 -54 546 1 1009 6 1030 10 22 5 49
21 63 36 19 23 22 34 17 68 -4 23 -65 214 -136 426 -191 569 -336 1087 -445
1590 -25 118 -50 224 -54 235 -5 12 -75 63 -157 115 -927 591 -1982 1465
-2799 2320 -126 133 -233 247 -238 255 -16 29 -25 14 -32 -49z"/>
<path d="M15100 7723 c-402 -311 -1076 -751 -1557 -1015 -101 -55 -183 -104
-183 -108 0 -4 -7 -70 -15 -147 -48 -437 -96 -803 -156 -1188 -43 -276 -44
-323 -8 -381 20 -33 61 -57 114 -68 17 -3 334 -10 705 -16 371 -5 961 -15
1311 -21 582 -11 640 -10 685 5 68 22 115 64 151 133 61 116 243 615 358 981
l65 206 -53 55 c-29 31 -333 407 -676 836 -343 429 -629 785 -635 791 -8 8
-36 -9 -106 -63z"/>
<path d="M4090 6705 c0 -17 96 -373 156 -578 111 -381 340 -1035 402 -1150 34
-63 108 -130 161 -146 55 -16 2233 -27 2291 -11 47 13 86 57 95 108 4 25 -10
153 -39 359 -25 176 -46 325 -46 331 0 6 -26 16 -57 22 -32 6 -157 34 -277 62
-823 188 -1661 497 -2498 919 -104 52 -188 90 -188 84z"/>
<path d="M12465 6190 c-289 -125 -751 -288 -1090 -385 -1105 -316 -2354 -423
-3478 -299 l-58 7 5 -34 c3 -19 20 -126 37 -238 35 -236 55 -297 114 -357 81
-80 -100 -74 2180 -74 2293 0 2101 -7 2186 79 34 33 51 62 63 101 19 61 86
508 141 930 39 306 40 320 23 319 -7 -1 -62 -22 -123 -49z"/>
<path d="M16855 4079 c-92 -14 -204 -55 -272 -100 -122 -79 -226 -228 -283
-404 -31 -96 -51 -133 -218 -415 -563 -948 -1110 -1648 -1776 -2271 -108 -100
-196 -184 -196 -185 0 -6 290 96 408 142 1275 504 2870 1656 3762 2718 79 94
137 167 273 343 48 63 26 142 -46 160 -18 5 -250 4 -517 -1 -372 -7 -527 -6
-665 3 -251 18 -400 21 -470 10z"/>
<path d="M2150 4073 c0 -14 264 -330 447 -536 819 -923 1742 -1670 2783 -2249
334 -186 755 -387 1114 -532 77 -31 141 -55 143 -53 5 6 -297 348 -492 557
-95 102 -212 230 -260 285 -549 627 -1063 1401 -1482 2230 -98 194 -134 244
-200 277 l-48 23 -1002 3 c-552 1 -1003 -1 -1003 -5z"/>
<path d="M5176 4070 c-47 -15 -66 -39 -66 -85 0 -49 50 -151 203 -416 749
-1299 1632 -2255 2649 -2871 150 -90 631 -333 636 -320 1 5 -66 146 -151 313
-433 860 -720 1716 -992 2958 -65 296 -90 347 -193 398 l-57 28 -1000 2 c-550
1 -1013 -2 -1029 -7z"/>
<path d="M8231 4069 c-83 -25 -106 -64 -99 -167 7 -82 169 -739 273 -1102 287
-1004 639 -1811 996 -2286 156 -207 364 -398 503 -459 186 -82 385 -70 575 36
305 170 559 501 871 1134 313 635 544 1329 811 2434 67 280 69 318 23 364 -14
14 -46 30 -72 36 -66 14 -3834 24 -3881 10z"/>
<path d="M13085 4058 c-49 -17 -92 -55 -114 -101 -12 -25 -46 -154 -77 -288
-340 -1502 -689 -2463 -1208 -3329 -45 -74 -82 -138 -84 -142 -2 -5 24 -8 57
-8 69 0 186 34 376 110 1067 427 1977 1150 2759 2190 244 326 551 803 778
1210 128 230 139 259 118 310 -26 63 37 60 -1333 59 -839 0 -1252 -4 -1272
-11z"/>
</g>
</svg>
