<?xml version="1.0" standalone="no"?>
<!DOCTYPE svg PUBLIC "-//W3C//DTD SVG 20010904//EN"
 "http://www.w3.org/TR/2001/REC-SVG-20010904/DTD/svg10.dtd">
<svg version="1.0" xmlns="http://www.w3.org/2000/svg"
 width="2084.000000pt" height="2014.000000pt" viewBox="0 0 2084.000000 2014.000000"
 preserveAspectRatio="xMidYMid meet">

<g transform="translate(0.000000,2014.000000) scale(0.100000,-0.100000)"
fill="#000000" stroke="none">
<path d="M8890 18135 l0 -2005 -2005 0 -2005 0 0 -1530 0 -1530 2005 0 2005 0
0 -2005 0 -2005 1528 2 1527 3 3 2003 2 2002 2000 0 2000 0 0 1530 0 1530
-2000 0 -2000 0 -2 2003 -3 2002 -1527 3 -1528 2 0 -2005z"/>
<path d="M2125 11828 c-24 -24 -497 -648 -1051 -1388 -553 -740 -1016 -1356
-1029 -1370 -63 -70 -58 -142 12 -175 31 -15 102 -16 696 -14 l662 2 53 -23
c57 -24 100 -67 132 -131 12 -22 48 -145 80 -272 239 -942 554 -1767 951
-2494 983 -1800 2459 -3082 4454 -3868 390 -154 774 -281 1182 -390 364 -98
384 -105 477 -152 l91 -46 737 -735 c405 -405 752 -744 770 -754 42 -22 100
-23 146 -1 22 10 315 297 741 725 756 758 767 767 938 838 43 18 204 64 358
102 470 116 842 232 1221 381 1160 457 2152 1117 3054 2033 333 338 547 586
810 935 777 1036 1292 2184 1564 3488 41 194 63 254 109 299 70 67 40 65 783
63 752 -3 731 -4 760 64 14 33 13 39 -3 69 -10 19 -489 661 -1064 1427 -671
894 -1057 1400 -1077 1412 -43 24 -89 22 -129 -9 -18 -14 -158 -193 -310 -397
-603 -809 -1719 -2296 -1772 -2361 -67 -83 -74 -127 -28 -174 l27 -27 759 -1
c417 -1 767 -5 778 -8 23 -7 43 -45 43 -80 0 -13 -15 -45 -32 -70 -18 -26 -87
-124 -152 -219 -954 -1382 -2077 -2375 -3461 -3062 -676 -335 -1462 -610
-2173 -759 -186 -39 -230 -34 -260 31 -16 35 -17 163 -20 1756 l-2 1717 -1536
0 -1535 0 1 -1687 c1 -1114 -2 -1699 -9 -1722 -40 -133 -110 -139 -501 -43
-1423 352 -2677 988 -3735 1892 -610 522 -1174 1156 -1661 1865 -158 230 -176
261 -181 308 -9 77 -62 71 786 77 681 5 760 7 793 22 45 20 56 53 36 104 -19
46 -2076 2791 -2123 2833 -54 47 -103 44 -160 -11z"/>
</g>
</svg>
